<svg xmlns="http://www.w3.org/2000/svg" viewBox="0 0 529.84 470.38"><defs><style>.cls-1{fill:#5bc5ee;}.cls-2,.cls-3,.cls-4{fill:#5cc5ef;}.cls-2,.cls-3{stroke:#5bc5ee;stroke-miterlimit:10;}.cls-2{stroke-width:5.45px;}.cls-4{font-size:84.72px;font-family:MyriadPro-Regular, Myriad Pro;}</style></defs><g id="Capa_2" data-name="Capa 2"><g id="Capa_1-2" data-name="Capa 1"><path class="cls-1" d="M219.53,360.82c-1.18,25.54-7.21,104.12-37.36,109.36-33.36,4.72-48.18-78-52.55-102.24-7.58-44.51-10.33-89.73-10.39-134.84.26-52.69,4-105.59,15.44-157.15,5.2-21.29,16.27-66.86,38.55-74.89,16.58-5.52,27.14,11.65,32.07,24.39,10.74,28.9,13.44,58.77,14.85,89-3.37-14.46-6.91-28.88-11.09-43.08-4.62-15-14.14-46.5-26.71-54.83-1.58-.75-2.11-1-3.46-.3-4.36,2.89-6.74,8-9.12,12.91-4.27,9.5-6.93,19.63-9.4,29.91-3.21,14-5.53,28.39-7.43,42.73-5.56,43.54-7.58,87.47-7.73,131.36.15,58.1,2.45,117.49,13.94,174.36,3,13.54,6.36,27.29,12.92,39.43,2.07,3.54,4.05,6.5,7,8.05,2.52,1.15,5.16-1.57,7-3.4,6.78-7.55,10.94-17.38,14.85-27,8-20.62,13.38-42.1,18.56-63.72Z"/><ellipse class="cls-2" cx="145.11" cy="78.6" rx="35.64" ry="26.2" transform="translate(36.27 202.65) rotate(-77.18)"/><path class="cls-1" d="M296.77,291.15c17.6,18.54,70.1,77.33,53,102.7-19.7,27.33-89.61-19.28-110.13-32.93-37.36-25.37-71.88-54.71-104.45-85.92C97.37,238.32,61.81,199,32.55,155,20.8,136.5-4.4,97,5.24,75.32c7.51-15.78,27.2-11.5,39.8-6.23,28.29,12.28,51.7,31,74.48,51-12.76-7.59-25.61-15-38.75-21.85-14-7-43.3-22-58-18.72-1.63.62-2.17.84-2.61,2.28-.93,5.16,1.09,10.39,3,15.53,3.89,9.66,9.36,18.6,15.06,27.5,7.91,12.05,16.65,23.65,25.67,34.95,27.55,34.17,57.83,66.07,89.38,96.58,42,40.14,86.43,79.62,135.4,110.74,11.87,7.19,24.08,14.31,37.38,18,4,1,7.5,1.59,10.67.51a2.39,2.39,0,0,0,1.25-.91c1.18-1.64,1.27-4.21,1.19-6.52-.75-10.12-5-19.93-9.22-29.45-9.36-20-21.1-38.81-33.11-57.52Z"/><ellipse class="cls-3" cx="307.08" cy="386.98" rx="21.24" ry="28.89" transform="translate(-169.32 517.74) rotate(-66.91)"/><path class="cls-1" d="M113,352.64C93.47,369.1,31.64,418,7.34,399.38c-26.1-21.31,24.62-88.3,39.48-108,27.56-35.77,58.92-68.46,92-99.1,38.89-35.55,80.3-68.68,126-95.25C284,86.44,325,63.66,346,74.58c15.3,8.44,9.85,27.84,3.83,40.1-14,27.5-34.06,49.75-55.32,71.29,8.34-12.28,16.54-24.66,24.13-37.37,7.86-13.57,24.57-41.9,22.17-56.82-.52-1.67-.71-2.22-2.12-2.74-5.09-1.25-10.44.46-15.68,2-9.88,3.3-19.13,8.22-28.36,13.38-12.49,7.17-24.61,15.2-36.43,23.53-35.76,25.45-69.41,53.76-101.76,83.43-42.59,39.51-84.66,81.5-118.66,128.51-7.88,11.42-15.73,23.18-20.2,36.24-1.19,3.93-2,7.39-1.15,10.62a2.44,2.44,0,0,0,.84,1.3c1.56,1.27,4.13,1.51,6.43,1.57,10.15-.14,20.19-3.75,30-7.44,20.56-8.13,40-18.73,59.41-29.59Z"/><ellipse class="cls-3" cx="333.88" cy="129.47" rx="27.53" ry="20.24" transform="translate(45.98 342.43) rotate(-57.69)"/><text class="cls-4" transform="translate(239.27 264.39)">REPOUP</text><circle class="cls-3" cx="182.3" cy="244.74" r="15.24"/><circle class="cls-3" cx="196.93" cy="227.6" r="15.24"/><circle class="cls-3" cx="201.99" cy="249.15" r="15.24"/></g></g></svg>