<svg xmlns="http://www.w3.org/2000/svg" viewBox="0 0 523.43 458.03"><defs><style>.cls-1{fill:#5bc5ee;}.cls-2,.cls-3,.cls-4{fill:#5cc5ef;}.cls-2,.cls-3{stroke:#5bc5ee;stroke-miterlimit:10;}.cls-2{stroke-width:5.45px;}.cls-4{font-size:84.72px;font-family:MyriadPro-Regular, Myriad Pro;}</style></defs><g id="Capa_2" data-name="Capa 2"><g id="Capa_1-2" data-name="Capa 1"><path class="cls-1" d="M213.12,354.5c-1.76,14.75-4,29.44-7.22,43.95s-7.06,29.12-13.69,42.55c-4.17,8.14-11.36,19.19-22,16.67-23.41-7.15-34.52-75-38.09-97.36a940.47,940.47,0,0,1,.66-267c4.33-25.53,11.47-64.62,26.93-85.17,5.13-6.7,13.37-11.34,21.37-5.52,11.16,8.36,16.7,26.84,20.61,39.76,6,21.5,9.53,43.58,12,65.72-3.41-21.95-7.45-43.89-14-65.13-3.37-10.46-7.16-20.94-13.23-30.11-21.1-30.81-36.1,21.33-40.38,37.76-7.24,28.66-11.1,58.06-13.73,87.48-6.11,73.65-5.43,148.19,4.46,221.49,3.23,21.87,7.12,43.77,14.23,64.72a101.82,101.82,0,0,0,9,19.87c17.62,28.83,32.87-8,38.37-24.76,7-21.09,11.19-43,14.74-64.95Z"/><ellipse class="cls-2" cx="138.7" cy="72.28" rx="15.97" ry="11.74" transform="translate(37.45 191.49) rotate(-77.18)"/><path class="cls-1" d="M290.37,284.83c9.41,11.49,18.43,23.3,26.69,35.66s16.11,25.26,21.2,39.34c3.95,10.81,6.13,27.1-9,29.43-24.93,3-70.08-27.65-90.78-42A940.75,940.75,0,0,1,46.36,161.85C31,141.05,7.71,108.81,3.6,83.43,2.32,75.09,4.68,65.93,14.42,64.2,28.26,62,45.29,70.72,57.37,76.87c19.66,10.57,38,23.32,55.74,36.85-18.19-12.75-36.82-25-56.69-35-9.88-4.82-20.06-9.35-30.88-11.33-43.89-7.17,1.52,59.89,11.49,73.72,30,42.18,65.52,80.25,102.64,116.27,42.71,40.77,87.78,79.9,138.54,110.32,18.58,11,72.3,38.82,57.55-7-4.65-14-12.1-26.91-19.89-39.4s-16.56-24.61-25.5-36.43Z"/><ellipse class="cls-3" cx="300.67" cy="380.66" rx="11.74" ry="15.97" transform="translate(-167.4 508) rotate(-66.91)"/><path class="cls-1" d="M106.63,346.32c-12,8.71-24.37,17-37.2,24.51s-26.18,14.56-40.54,18.8c-11,3.3-27.42,4.5-28.84-10.78-1.54-25.07,31.81-68.3,47.37-88.1A940.29,940.29,0,0,1,244,110.14c21.71-14.15,55.23-35.4,80.85-38,8.39-.78,17.4,2.13,18.54,11.95,1.41,14-8.36,30.43-15.23,42.12-11.72,19-25.55,36.56-40.12,53.43,13.82-17.39,27.2-35.25,38.34-54.49,5.41-9.57,10.53-19.47,13.15-30.14,9.8-43.38-59.86-2.08-74.27,7-43.91,27.46-84,60.59-122.22,95.49-43.25,40.18-85,82.82-118.42,131.67-12.09,17.89-43.09,69.84,3.57,57.87,14.26-3.8,27.58-10.47,40.52-17.5s25.56-15,37.9-23.27Z"/><ellipse class="cls-3" cx="327.47" cy="123.15" rx="15.97" ry="11.74" transform="matrix(0.53, -0.85, 0.85, 0.53, 48.34, 334.07)"/><text class="cls-4" transform="translate(232.86 258.07)">REPOUP</text><circle class="cls-3" cx="175.89" cy="238.43" r="15.24"/><circle class="cls-3" cx="190.52" cy="221.28" r="15.24"/><circle class="cls-3" cx="195.58" cy="242.83" r="15.24"/></g></g></svg>