<svg xmlns="http://www.w3.org/2000/svg" viewBox="0 0 216.1 190.17"><defs><style>.cls-1{fill:#5bc5ee;}.cls-2{fill:none;stroke-width:5.45px;}.cls-2,.cls-3{stroke:#5bc5ee;stroke-miterlimit:10;}.cls-3,.cls-4{fill:#5cc5ef;}.cls-4{font-size:34.82px;font-family:MyriadPro-Regular, Myriad Pro;}</style></defs><g id="Capa_2" data-name="Capa 2"><g id="Capa_1-2" data-name="Capa 1"><path class="cls-1" d="M88.56,146.68a149.91,149.91,0,0,1-4.67,27.14c-1.35,4.47-2.84,9.1-5.79,12.9-1.66,2.22-4.52,4.07-7.42,3.26-7.59-2.43-11-15.73-13-22.59-6.12-23.88-7.53-48.66-7.7-73.2a347.64,347.64,0,0,1,4.19-55.06,157.73,157.73,0,0,1,4-18.11c1.83-6.09,3.66-12.13,7.67-17.33,1.59-2,4.49-4.2,7.43-3.59,8.57,2.07,11.7,19.7,13.25,27.13.55,3,1,6,1.4,9.07s.69,6.08,1,9.12c-2.26-11.79-4.6-24-9.73-34.91C76.91,6.27,73-.34,68.6,5.91c-3.25,4.67-4.94,10.64-6.37,16.22a237.26,237.26,0,0,0-5.34,35.76,461,461,0,0,0-.19,72.63,251,251,0,0,0,5,35.84c11.43,47.56,23.24.26,26.82-19.68Z"/><ellipse class="cls-2" cx="57.97" cy="30.69" rx="6.57" ry="4.83" transform="translate(15.19 80.41) rotate(-77.18)"/><path class="cls-1" d="M120.31,118a151,151,0,0,1,16.34,22.17c2.29,4.08,4.59,8.35,5.3,13.12.44,2.73-.2,6.07-2.8,7.6-7,3.79-18.94-3-25.31-6.25-21.46-12.13-40.31-28.29-58.13-45.16A349.91,349.91,0,0,1,18.9,68.35,161.2,161.2,0,0,1,8.59,53C5.47,47.42,2.38,41.91,1.41,35.41c-.36-2.54.09-6.14,2.56-7.84,7.43-4.75,22.3,5.21,28.74,9.24,2.55,1.69,5.06,3.46,7.52,5.27s4.85,3.72,7.23,5.64C37.38,41.18,26.93,34.37,15.55,30.55,11,29.18,3.51,27.41,5,34.92c1.11,5.58,4.25,10.94,7.28,15.83A235.28,235.28,0,0,0,34.34,79.37a460.41,460.41,0,0,0,52.25,50.46A250.57,250.57,0,0,0,115.93,151c42.21,24.71,16.28-16.58,4.38-33Z"/><ellipse class="cls-3" cx="124.54" cy="157.43" rx="4.83" ry="6.57" transform="translate(-69.11 210.27) rotate(-66.91)"/><path class="cls-1" d="M44.79,143.32a151.9,151.9,0,0,1-23.1,15c-4.21,2-8.62,4.08-13.42,4.5-2.75.28-6-.56-7.42-3.25-3.36-7.22,4.11-18.73,7.76-24.89C22,114,39.26,96.12,57.17,79.35a349.79,349.79,0,0,1,43.3-34.28,163.08,163.08,0,0,1,16-9.37c5.72-2.78,11.4-5.54,17.94-6.12,2.56-.2,6.13.46,7.68,3,4.29,7.7-6.54,22-11,28.14q-2.76,3.68-5.71,7.18t-6.06,6.88c7.13-9.66,14.55-19.69,19-30.82,1.64-4.48,3.85-11.83-3.73-10.82-5.64.77-11.17,3.58-16.23,6.31a236.82,236.82,0,0,0-29.9,20.34A460,460,0,0,0,35.05,109a252.69,252.69,0,0,0-22.92,28c-27.19,40.66,15.58,17.25,32.66,6.36Z"/><ellipse class="cls-3" cx="135.56" cy="51.59" rx="6.57" ry="4.83" transform="translate(19.49 138.58) rotate(-57.69)"/><text class="cls-4" transform="translate(96.67 107.04)">REPOUP</text><circle class="cls-3" cx="73.26" cy="98.97" r="6.26"/><circle class="cls-3" cx="79.27" cy="91.92" r="6.26"/><circle class="cls-3" cx="81.35" cy="100.78" r="6.26"/></g></g></svg>